<svg xmlns="http://www.w3.org/2000/svg" xmlns:xlink="http://www.w3.org/1999/xlink" width="500" zoomAndPan="magnify" viewBox="0 0 375 374.999991" height="500" preserveAspectRatio="xMidYMid meet" version="1.0"><defs><clipPath id="323cb64bc2"><path d="M 0 0 L 373 0 L 373 371.078125 L 0 371.078125 Z M 0 0 " clip-rule="nonzero"/></clipPath></defs><g clip-path="url(#323cb64bc2)"><path fill="#d4e8f9" d="M 372.167969 185.5 C 372.167969 188.539062 372.09375 191.574219 371.945312 194.609375 C 371.792969 197.644531 371.570312 200.675781 371.273438 203.699219 C 370.976562 206.722656 370.601562 209.738281 370.15625 212.742188 C 369.710938 215.746094 369.191406 218.738281 368.601562 221.71875 C 368.007812 224.699219 367.339844 227.664062 366.601562 230.609375 C 365.863281 233.558594 365.054688 236.484375 364.171875 239.390625 C 363.289062 242.300781 362.339844 245.183594 361.316406 248.042969 C 360.292969 250.90625 359.199219 253.738281 358.035156 256.546875 C 356.871094 259.351562 355.640625 262.128906 354.34375 264.875 C 353.042969 267.625 351.679688 270.335938 350.246094 273.015625 C 348.8125 275.695312 347.316406 278.339844 345.753906 280.945312 C 344.191406 283.550781 342.566406 286.117188 340.878906 288.640625 C 339.191406 291.167969 337.441406 293.652344 335.632812 296.09375 C 333.824219 298.53125 331.953125 300.925781 330.027344 303.277344 C 328.097656 305.625 326.113281 307.925781 324.074219 310.175781 C 322.035156 312.425781 319.941406 314.625 317.792969 316.773438 C 315.644531 318.921875 313.441406 321.019531 311.191406 323.058594 C 308.941406 325.097656 306.640625 327.082031 304.292969 329.011719 C 301.945312 330.9375 299.550781 332.804688 297.109375 334.617188 C 294.667969 336.425781 292.183594 338.175781 289.660156 339.863281 C 287.132812 341.550781 284.566406 343.175781 281.960938 344.738281 C 279.355469 346.300781 276.710938 347.796875 274.03125 349.230469 C 271.351562 350.660156 268.640625 352.027344 265.894531 353.328125 C 263.144531 354.625 260.371094 355.855469 257.5625 357.019531 C 254.753906 358.183594 251.921875 359.273438 249.0625 360.296875 C 246.199219 361.320312 243.316406 362.273438 240.410156 363.15625 C 237.5 364.039062 234.574219 364.847656 231.625 365.585938 C 228.679688 366.324219 225.714844 366.992188 222.734375 367.582031 C 219.757812 368.175781 216.761719 368.695312 213.757812 369.140625 C 210.753906 369.585938 207.738281 369.957031 204.714844 370.257812 C 201.691406 370.554688 198.660156 370.777344 195.628906 370.925781 C 192.59375 371.074219 189.554688 371.152344 186.519531 371.152344 C 183.480469 371.152344 180.441406 371.074219 177.410156 370.925781 C 174.375 370.777344 171.34375 370.554688 168.320312 370.257812 C 165.296875 369.957031 162.28125 369.585938 159.277344 369.140625 C 156.273438 368.695312 153.277344 368.175781 150.300781 367.582031 C 147.320312 366.992188 144.355469 366.324219 141.410156 365.585938 C 138.460938 364.847656 135.535156 364.039062 132.625 363.15625 C 129.71875 362.273438 126.835938 361.320312 123.972656 360.296875 C 121.113281 359.273438 118.28125 358.183594 115.472656 357.019531 C 112.664062 355.855469 109.890625 354.625 107.140625 353.328125 C 104.394531 352.027344 101.683594 350.660156 99.003906 349.230469 C 96.324219 347.796875 93.679688 346.300781 91.074219 344.738281 C 88.46875 343.175781 85.902344 341.550781 83.375 339.863281 C 80.851562 338.175781 78.367188 336.425781 75.925781 334.617188 C 73.484375 332.804688 71.089844 330.9375 68.742188 329.011719 C 66.394531 327.082031 64.09375 325.097656 61.84375 323.058594 C 59.59375 321.019531 57.390625 318.921875 55.242188 316.773438 C 53.09375 314.625 51 312.425781 48.960938 310.175781 C 46.921875 307.925781 44.9375 305.625 43.007812 303.277344 C 41.082031 300.925781 39.210938 298.53125 37.402344 296.09375 C 35.59375 293.652344 33.84375 291.167969 32.15625 288.640625 C 30.46875 286.117188 28.84375 283.550781 27.28125 280.945312 C 25.71875 278.339844 24.222656 275.695312 22.789062 273.015625 C 21.355469 270.335938 19.992188 267.625 18.691406 264.875 C 17.394531 262.128906 16.164062 259.351562 15 256.546875 C 13.835938 253.738281 12.746094 250.90625 11.71875 248.042969 C 10.695312 245.183594 9.746094 242.300781 8.863281 239.390625 C 7.980469 236.484375 7.171875 233.558594 6.433594 230.609375 C 5.695312 227.664062 5.027344 224.699219 4.433594 221.71875 C 3.84375 218.738281 3.324219 215.746094 2.878906 212.742188 C 2.433594 209.738281 2.058594 206.722656 1.761719 203.699219 C 1.464844 200.675781 1.242188 197.644531 1.09375 194.609375 C 0.941406 191.574219 0.867188 188.539062 0.867188 185.5 C 0.867188 182.464844 0.941406 179.425781 1.09375 176.390625 C 1.242188 173.355469 1.464844 170.328125 1.761719 167.304688 C 2.058594 164.28125 2.433594 161.265625 2.878906 158.261719 C 3.324219 155.253906 3.84375 152.261719 4.433594 149.28125 C 5.027344 146.304688 5.695312 143.339844 6.433594 140.390625 C 7.171875 137.445312 7.980469 134.519531 8.863281 131.609375 C 9.746094 128.703125 10.695312 125.820312 11.71875 122.957031 C 12.746094 120.097656 13.835938 117.261719 15 114.457031 C 16.164062 111.648438 17.394531 108.871094 18.691406 106.125 C 19.992188 103.378906 21.355469 100.667969 22.789062 97.988281 C 24.222656 95.308594 25.71875 92.664062 27.28125 90.058594 C 28.84375 87.453125 30.46875 84.886719 32.15625 82.359375 C 33.84375 79.832031 35.59375 77.351562 37.402344 74.910156 C 39.210938 72.46875 41.082031 70.074219 43.007812 67.726562 C 44.9375 65.378906 46.921875 63.078125 48.960938 60.828125 C 51 58.574219 53.09375 56.375 55.242188 54.226562 C 57.390625 52.078125 59.59375 49.984375 61.84375 47.945312 C 64.09375 45.902344 66.394531 43.921875 68.742188 41.992188 C 71.089844 40.066406 73.484375 38.195312 75.925781 36.386719 C 78.367188 34.578125 80.851562 32.828125 83.375 31.140625 C 85.902344 29.453125 88.46875 27.828125 91.074219 26.265625 C 93.679688 24.703125 96.324219 23.207031 99.003906 21.773438 C 101.683594 20.339844 104.394531 18.976562 107.140625 17.675781 C 109.890625 16.378906 112.664062 15.144531 115.472656 13.984375 C 118.28125 12.820312 121.113281 11.726562 123.972656 10.703125 C 126.835938 9.679688 129.71875 8.726562 132.625 7.847656 C 135.535156 6.964844 138.460938 6.152344 141.410156 5.414062 C 144.355469 4.675781 147.320312 4.011719 150.300781 3.417969 C 153.277344 2.828125 156.273438 2.308594 159.277344 1.863281 C 162.28125 1.414062 165.296875 1.042969 168.320312 0.746094 C 171.34375 0.449219 174.375 0.226562 177.410156 0.0742188 C 180.441406 -0.0742188 183.480469 -0.148438 186.519531 -0.148438 C 189.554688 -0.148438 192.59375 -0.0742188 195.628906 0.0742188 C 198.660156 0.226562 201.691406 0.449219 204.714844 0.746094 C 207.738281 1.042969 210.753906 1.414062 213.757812 1.863281 C 216.761719 2.308594 219.757812 2.828125 222.734375 3.417969 C 225.714844 4.011719 228.679688 4.675781 231.625 5.414062 C 234.574219 6.152344 237.5 6.964844 240.410156 7.847656 C 243.316406 8.726562 246.199219 9.679688 249.0625 10.703125 C 251.921875 11.726562 254.753906 12.820312 257.5625 13.984375 C 260.371094 15.144531 263.144531 16.378906 265.894531 17.675781 C 268.640625 18.976562 271.351562 20.339844 274.03125 21.773438 C 276.710938 23.207031 279.355469 24.703125 281.960938 26.265625 C 284.566406 27.828125 287.132812 29.453125 289.660156 31.140625 C 292.183594 32.828125 294.667969 34.578125 297.109375 36.386719 C 299.550781 38.195312 301.945312 40.066406 304.292969 41.992188 C 306.640625 43.921875 308.941406 45.902344 311.191406 47.945312 C 313.441406 49.984375 315.644531 52.078125 317.792969 54.226562 C 319.941406 56.375 322.035156 58.574219 324.074219 60.828125 C 326.113281 63.078125 328.097656 65.378906 330.027344 67.726562 C 331.953125 70.074219 333.824219 72.46875 335.632812 74.910156 C 337.441406 77.351562 339.191406 79.832031 340.878906 82.359375 C 342.566406 84.886719 344.191406 87.453125 345.753906 90.058594 C 347.316406 92.664062 348.8125 95.308594 350.246094 97.988281 C 351.679688 100.667969 353.042969 103.378906 354.34375 106.125 C 355.640625 108.871094 356.871094 111.648438 358.035156 114.457031 C 359.199219 117.261719 360.292969 120.097656 361.316406 122.957031 C 362.339844 125.820312 363.289062 128.703125 364.171875 131.609375 C 365.054688 134.519531 365.863281 137.445312 366.601562 140.390625 C 367.339844 143.339844 368.007812 146.304688 368.601562 149.28125 C 369.191406 152.261719 369.710938 155.253906 370.15625 158.261719 C 370.601562 161.265625 370.976562 164.28125 371.273438 167.304688 C 371.570312 170.328125 371.792969 173.355469 371.945312 176.390625 C 372.09375 179.425781 372.167969 182.464844 372.167969 185.5 Z M 372.167969 185.5 " fill-opacity="1" fill-rule="nonzero"/></g><path fill="#0f3971" d="M 177.957031 41.816406 C 172.347656 41.816406 167.785156 37.253906 167.785156 31.648438 C 167.785156 26.039062 172.347656 21.476562 177.957031 21.476562 C 183.566406 21.476562 188.125 26.039062 188.125 31.648438 C 188.125 37.257812 183.566406 41.816406 177.957031 41.816406 Z M 177.957031 26.425781 C 175.078125 26.425781 172.730469 28.769531 172.730469 31.648438 C 172.730469 34.53125 175.074219 36.871094 177.957031 36.871094 C 180.835938 36.871094 183.179688 34.53125 183.179688 31.648438 C 183.179688 28.769531 180.835938 26.425781 177.957031 26.425781 Z M 177.957031 26.425781 " fill-opacity="1" fill-rule="nonzero"/><path fill="#0f3971" d="M 18.746094 222.886719 C 13.140625 222.886719 8.578125 218.328125 8.578125 212.71875 C 8.578125 207.113281 13.140625 202.550781 18.746094 202.550781 C 24.355469 202.550781 28.917969 207.113281 28.917969 212.71875 C 28.917969 218.328125 24.355469 222.886719 18.746094 222.886719 Z M 18.746094 207.496094 C 15.867188 207.496094 13.523438 209.839844 13.523438 212.71875 C 13.523438 215.601562 15.867188 217.941406 18.746094 217.941406 C 21.628906 217.941406 23.972656 215.601562 23.972656 212.71875 C 23.972656 209.839844 21.628906 207.496094 18.746094 207.496094 Z M 18.746094 207.496094 " fill-opacity="1" fill-rule="nonzero"/><path fill="#0f3971" d="M 358.175781 303.355469 C 352.570312 303.355469 348.007812 298.792969 348.007812 293.1875 C 348.007812 287.582031 352.570312 283.019531 358.175781 283.019531 C 363.785156 283.019531 368.347656 287.582031 368.347656 293.1875 C 368.347656 298.792969 363.785156 303.355469 358.175781 303.355469 Z M 358.175781 287.964844 C 355.296875 287.964844 352.953125 290.304688 352.953125 293.1875 C 352.953125 296.066406 355.296875 298.410156 358.175781 298.410156 C 361.058594 298.410156 363.402344 296.066406 363.402344 293.1875 C 363.398438 290.308594 361.058594 287.964844 358.175781 287.964844 Z M 358.175781 287.964844 " fill-opacity="1" fill-rule="nonzero"/><path fill="#0f3971" d="M 369.816406 165.234375 C 367.371094 165.234375 363.230469 164.628906 359.941406 161.082031 C 354.386719 155.101562 355.867188 147.847656 355.933594 147.542969 C 356.222656 146.207031 357.542969 145.363281 358.875 145.644531 C 360.203125 145.929688 361.050781 147.238281 360.773438 148.570312 C 360.726562 148.804688 359.816406 153.679688 363.566406 157.71875 C 366.566406 160.949219 370.917969 160.222656 370.960938 160.214844 C 372.304688 159.953125 373.597656 160.835938 373.855469 162.175781 C 374.113281 163.519531 373.234375 164.816406 371.894531 165.074219 C 371.796875 165.089844 371.007812 165.234375 369.816406 165.234375 Z M 369.816406 165.234375 " fill-opacity="1" fill-rule="nonzero"/><path fill="#0f3971" d="M 346.535156 165.234375 C 345.34375 165.234375 344.554688 165.089844 344.460938 165.074219 C 343.121094 164.816406 342.242188 163.519531 342.5 162.175781 C 342.757812 160.835938 344.046875 159.957031 345.394531 160.214844 C 345.554688 160.242188 349.789062 160.945312 352.785156 157.71875 C 356.546875 153.667969 355.621094 148.773438 355.578125 148.566406 C 355.3125 147.234375 356.167969 145.925781 357.5 145.648438 C 358.832031 145.375 360.132812 146.214844 360.417969 147.542969 C 360.484375 147.847656 361.96875 155.101562 356.414062 161.082031 C 353.121094 164.628906 348.984375 165.234375 346.535156 165.234375 Z M 346.535156 165.234375 " fill-opacity="1" fill-rule="nonzero"/><path fill="#0f3971" d="M 358.007812 179.9375 C 357.835938 179.9375 357.660156 179.917969 357.484375 179.882812 C 356.152344 179.597656 355.304688 178.289062 355.582031 176.957031 C 355.632812 176.714844 356.535156 171.84375 352.789062 167.8125 C 349.789062 164.582031 345.558594 165.285156 345.378906 165.316406 C 344.054688 165.554688 342.753906 164.667969 342.507812 163.332031 C 342.261719 161.996094 343.132812 160.710938 344.464844 160.453125 C 344.75 160.402344 351.519531 159.171875 356.414062 164.445312 C 361.96875 170.425781 360.488281 177.679688 360.421875 177.984375 C 360.171875 179.148438 359.148438 179.9375 358.007812 179.9375 Z M 358.007812 179.9375 " fill-opacity="1" fill-rule="nonzero"/><path fill="#0f3971" d="M 358.351562 179.9375 C 357.210938 179.9375 356.1875 179.144531 355.9375 177.984375 C 355.871094 177.675781 354.386719 170.425781 359.941406 164.445312 C 364.839844 159.167969 371.605469 160.402344 371.890625 160.453125 C 373.234375 160.714844 374.113281 162.011719 373.855469 163.351562 C 373.597656 164.691406 372.304688 165.574219 370.957031 165.316406 C 370.796875 165.28125 366.566406 164.582031 363.566406 167.8125 C 359.746094 171.925781 360.761719 176.894531 360.769531 176.945312 C 361.058594 178.28125 360.210938 179.597656 358.875 179.882812 C 358.699219 179.921875 358.523438 179.9375 358.351562 179.9375 Z M 358.351562 179.9375 " fill-opacity="1" fill-rule="nonzero"/><path fill="#0f3971" d="M 63.828125 31.898438 C 61.382812 31.898438 57.246094 31.289062 53.953125 27.746094 C 48.398438 21.761719 49.882812 14.507812 49.945312 14.203125 C 50.234375 12.867188 51.550781 12.023438 52.886719 12.308594 C 54.214844 12.59375 55.066406 13.902344 54.789062 15.230469 C 54.738281 15.476562 53.832031 20.34375 57.582031 24.378906 C 60.578125 27.605469 64.808594 26.902344 64.988281 26.871094 C 66.320312 26.640625 67.613281 27.523438 67.863281 28.859375 C 68.109375 30.195312 67.238281 31.476562 65.90625 31.734375 C 65.8125 31.753906 65.019531 31.898438 63.828125 31.898438 Z M 63.828125 31.898438 " fill-opacity="1" fill-rule="nonzero"/><path fill="#0f3971" d="M 40.550781 31.898438 C 39.359375 31.898438 38.570312 31.753906 38.476562 31.734375 C 37.132812 31.476562 36.253906 30.179688 36.511719 28.839844 C 36.769531 27.496094 38.0625 26.617188 39.410156 26.875 C 39.570312 26.902344 43.800781 27.609375 46.800781 24.378906 C 50.621094 20.261719 49.609375 15.296875 49.597656 15.246094 C 49.308594 13.910156 50.15625 12.59375 51.496094 12.308594 C 52.828125 12.027344 54.144531 12.867188 54.433594 14.203125 C 54.5 14.511719 55.984375 21.761719 50.425781 27.746094 C 47.132812 31.289062 42.996094 31.898438 40.550781 31.898438 Z M 40.550781 31.898438 " fill-opacity="1" fill-rule="nonzero"/><path fill="#0f3971" d="M 52.019531 46.601562 C 51.847656 46.601562 51.671875 46.582031 51.496094 46.546875 C 50.164062 46.261719 49.316406 44.953125 49.59375 43.621094 C 49.640625 43.378906 50.550781 38.511719 46.804688 34.472656 C 43.804688 31.242188 39.574219 31.945312 39.394531 31.980469 C 38.054688 32.214844 36.769531 31.328125 36.523438 29.992188 C 36.277344 28.65625 37.144531 27.375 38.476562 27.117188 C 38.765625 27.066406 45.53125 25.832031 50.425781 31.105469 C 55.984375 37.089844 54.5 44.34375 54.433594 44.648438 C 54.183594 45.808594 53.160156 46.601562 52.019531 46.601562 Z M 52.019531 46.601562 " fill-opacity="1" fill-rule="nonzero"/><path fill="#0f3971" d="M 52.367188 46.601562 C 51.226562 46.601562 50.199219 45.808594 49.949219 44.648438 C 49.886719 44.34375 48.402344 37.089844 53.957031 31.109375 C 58.855469 25.835938 65.621094 27.066406 65.90625 27.121094 C 67.25 27.378906 68.128906 28.675781 67.871094 30.015625 C 67.613281 31.355469 66.320312 32.238281 64.972656 31.980469 C 64.816406 31.953125 60.582031 31.246094 57.582031 34.476562 C 53.761719 38.59375 54.773438 43.558594 54.785156 43.609375 C 55.070312 44.945312 54.222656 46.261719 52.886719 46.546875 C 52.714844 46.582031 52.539062 46.601562 52.367188 46.601562 Z M 52.367188 46.601562 " fill-opacity="1" fill-rule="nonzero"/><path fill="#0f3971" d="M 189.585938 328.363281 C 187.140625 328.363281 183.007812 327.753906 179.71875 324.214844 C 174.160156 318.230469 175.644531 310.976562 175.710938 310.671875 C 176 309.335938 177.320312 308.488281 178.652344 308.777344 C 179.980469 309.0625 180.832031 310.371094 180.550781 311.699219 C 180.503906 311.941406 179.597656 316.808594 183.34375 320.847656 C 186.34375 324.078125 190.570312 323.371094 190.75 323.339844 C 192.09375 323.105469 193.378906 323.988281 193.625 325.324219 C 193.871094 326.660156 193.003906 327.941406 191.667969 328.199219 C 191.574219 328.21875 190.78125 328.363281 189.585938 328.363281 Z M 189.585938 328.363281 " fill-opacity="1" fill-rule="nonzero"/><path fill="#0f3971" d="M 166.320312 328.363281 C 165.125 328.363281 164.332031 328.214844 164.238281 328.199219 C 162.898438 327.941406 162.019531 326.644531 162.277344 325.300781 C 162.535156 323.960938 163.828125 323.078125 165.175781 323.339844 C 165.335938 323.367188 169.566406 324.074219 172.566406 320.847656 C 176.386719 316.730469 175.371094 311.765625 175.363281 311.714844 C 175.074219 310.378906 175.921875 309.0625 177.257812 308.773438 C 178.59375 308.488281 179.910156 309.335938 180.199219 310.671875 C 180.265625 310.976562 181.746094 318.230469 176.191406 324.210938 C 172.902344 327.753906 168.765625 328.363281 166.320312 328.363281 Z M 166.320312 328.363281 " fill-opacity="1" fill-rule="nonzero"/><path fill="#0f3971" d="M 177.785156 343.066406 C 177.613281 343.066406 177.4375 343.046875 177.261719 343.011719 C 175.929688 342.726562 175.082031 341.417969 175.359375 340.085938 C 175.402344 339.863281 176.324219 334.980469 172.566406 330.9375 C 169.5625 327.703125 165.21875 328.433594 165.175781 328.441406 C 163.84375 328.691406 162.535156 327.820312 162.277344 326.480469 C 162.019531 325.136719 162.898438 323.839844 164.242188 323.582031 C 164.523438 323.527344 171.296875 322.296875 176.191406 327.566406 C 181.746094 333.550781 180.265625 340.804688 180.199219 341.109375 C 179.949219 342.273438 178.925781 343.066406 177.785156 343.066406 Z M 177.785156 343.066406 " fill-opacity="1" fill-rule="nonzero"/><path fill="#0f3971" d="M 178.125 343.058594 C 176.984375 343.058594 175.964844 342.273438 175.714844 341.113281 C 175.648438 340.808594 174.164062 333.554688 179.722656 327.570312 C 184.617188 322.300781 191.382812 323.53125 191.671875 323.585938 C 193.015625 323.84375 193.890625 325.140625 193.632812 326.484375 C 193.375 327.824219 192.078125 328.695312 190.738281 328.445312 C 190.578125 328.414062 186.34375 327.707031 183.347656 330.9375 C 179.585938 334.992188 180.511719 339.882812 180.554688 340.089844 C 180.820312 341.421875 179.964844 342.730469 178.632812 343.003906 C 178.464844 343.042969 178.292969 343.058594 178.125 343.058594 Z M 178.125 343.058594 " fill-opacity="1" fill-rule="nonzero"/><path fill="#badaf0" d="M 249.3125 151.722656 C 254.574219 151.722656 258.835938 147.460938 258.835938 142.203125 L 258.835938 109.496094 C 258.835938 104.234375 254.574219 99.972656 249.3125 99.972656 C 249.308594 99.972656 249.300781 99.972656 249.289062 99.972656 L 249.289062 78.351562 C 249.289062 72.5625 244.597656 67.871094 238.808594 67.871094 L 130.0625 67.871094 C 124.273438 67.871094 119.578125 72.5625 119.578125 78.351562 L 119.578125 301.089844 C 119.578125 306.878906 124.273438 311.574219 130.0625 311.574219 L 238.808594 311.574219 C 244.597656 311.574219 249.289062 306.878906 249.289062 301.089844 L 249.289062 215.597656 C 249.300781 215.597656 249.308594 215.601562 249.3125 215.601562 C 254.574219 215.601562 258.835938 211.335938 258.835938 206.078125 L 258.835938 173.371094 C 258.835938 168.109375 254.574219 163.847656 249.3125 163.847656 C 249.308594 163.847656 249.300781 163.847656 249.289062 163.847656 L 249.289062 151.726562 C 249.296875 151.722656 249.304688 151.722656 249.3125 151.722656 Z M 249.3125 151.722656 " fill-opacity="1" fill-rule="nonzero"/><path fill="#0f3971" d="M 269.464844 133.136719 C 269.464844 138.394531 265.199219 142.660156 259.9375 142.660156 C 254.679688 142.660156 250.417969 138.394531 250.417969 133.136719 L 250.417969 100.429688 C 250.417969 95.171875 254.679688 90.90625 259.9375 90.90625 C 265.199219 90.90625 269.464844 95.171875 269.464844 100.429688 Z M 269.464844 133.136719 " fill-opacity="1" fill-rule="nonzero"/><path fill="#0f3971" d="M 269.464844 197.011719 C 269.464844 202.269531 265.199219 206.535156 259.9375 206.535156 C 254.679688 206.535156 250.417969 202.269531 250.417969 197.011719 L 250.417969 164.304688 C 250.417969 159.046875 254.679688 154.78125 259.9375 154.78125 C 265.199219 154.78125 269.464844 159.046875 269.464844 164.304688 Z M 269.464844 197.011719 " fill-opacity="1" fill-rule="nonzero"/><path fill="#0ba8d8" d="M 130.203125 140.894531 L 130.203125 69.289062 C 130.203125 63.496094 134.894531 58.804688 140.6875 58.804688 L 249.433594 58.804688 C 255.222656 58.804688 259.917969 63.496094 259.917969 69.289062 L 259.917969 292.023438 C 259.917969 297.8125 255.222656 302.507812 249.433594 302.507812 L 140.6875 302.507812 C 134.894531 302.507812 130.203125 297.8125 130.203125 292.023438 L 130.203125 186.753906 " fill-opacity="1" fill-rule="nonzero"/><path fill="#ffffff" d="M 130.203125 77.148438 L 259.914062 77.148438 L 259.914062 275.648438 L 130.203125 275.648438 Z M 130.203125 77.148438 " fill-opacity="1" fill-rule="nonzero"/><path fill="#0f3971" d="M 249.433594 304.378906 L 140.6875 304.378906 C 133.875 304.378906 128.332031 298.835938 128.332031 292.023438 L 128.332031 186.753906 C 128.332031 185.71875 129.171875 184.882812 130.203125 184.882812 C 131.234375 184.882812 132.074219 185.71875 132.074219 186.753906 L 132.074219 292.023438 C 132.074219 296.773438 135.9375 300.636719 140.6875 300.636719 L 249.433594 300.636719 C 254.183594 300.636719 258.046875 296.773438 258.046875 292.023438 L 258.046875 69.289062 C 258.046875 64.539062 254.183594 60.675781 249.433594 60.675781 L 140.6875 60.675781 C 135.9375 60.675781 132.074219 64.539062 132.074219 69.289062 L 132.074219 140.894531 C 132.074219 141.929688 131.234375 142.765625 130.203125 142.765625 C 129.171875 142.765625 128.332031 141.929688 128.332031 140.894531 L 128.332031 69.289062 C 128.332031 62.476562 133.871094 56.933594 140.6875 56.933594 L 249.433594 56.933594 C 256.246094 56.933594 261.789062 62.472656 261.789062 69.289062 L 261.789062 292.023438 C 261.789062 298.835938 256.246094 304.378906 249.433594 304.378906 Z M 249.433594 304.378906 " fill-opacity="1" fill-rule="nonzero"/><path fill="#0f3971" d="M 130.203125 177.707031 C 129.171875 177.707031 128.332031 176.871094 128.332031 175.835938 L 128.332031 152.25 C 128.332031 151.21875 129.171875 150.378906 130.203125 150.378906 C 131.234375 150.378906 132.074219 151.21875 132.074219 152.25 L 132.074219 175.835938 C 132.074219 176.871094 131.238281 177.707031 130.203125 177.707031 Z M 130.203125 177.707031 " fill-opacity="1" fill-rule="nonzero"/><path fill="#0f3971" d="M 188.300781 79.019531 L 130.203125 79.019531 C 129.171875 79.019531 128.332031 78.183594 128.332031 77.148438 C 128.332031 76.117188 129.171875 75.277344 130.203125 75.277344 L 188.300781 75.277344 C 189.332031 75.277344 190.171875 76.117188 190.171875 77.148438 C 190.171875 78.183594 189.332031 79.019531 188.300781 79.019531 Z M 188.300781 79.019531 " fill-opacity="1" fill-rule="nonzero"/><path fill="#0f3971" d="M 259.917969 277.519531 L 130.203125 277.519531 C 129.171875 277.519531 128.332031 276.679688 128.332031 275.648438 C 128.332031 274.613281 129.171875 273.777344 130.203125 273.777344 L 259.914062 273.777344 C 260.945312 273.777344 261.785156 274.613281 261.785156 275.648438 C 261.785156 276.679688 260.949219 277.519531 259.917969 277.519531 Z M 259.917969 277.519531 " fill-opacity="1" fill-rule="nonzero"/><path fill="#0f3971" d="M 259.917969 79.019531 L 223.023438 79.019531 C 221.992188 79.019531 221.152344 78.183594 221.152344 77.148438 C 221.152344 76.117188 221.992188 75.277344 223.023438 75.277344 L 259.917969 75.277344 C 260.949219 75.277344 261.789062 76.117188 261.789062 77.148438 C 261.789062 78.183594 260.949219 79.019531 259.917969 79.019531 Z M 259.917969 79.019531 " fill-opacity="1" fill-rule="nonzero"/><path fill="#0f3971" d="M 214.183594 79.019531 L 196.820312 79.019531 C 195.789062 79.019531 194.949219 78.183594 194.949219 77.148438 C 194.949219 76.117188 195.789062 75.277344 196.820312 75.277344 L 214.183594 75.277344 C 215.214844 75.277344 216.054688 76.117188 216.054688 77.148438 C 216.054688 78.183594 215.214844 79.019531 214.183594 79.019531 Z M 214.183594 79.019531 " fill-opacity="1" fill-rule="nonzero"/><path fill="#0f3971" d="M 174.96875 58.804688 L 215.148438 58.804688 L 215.148438 70.597656 L 174.96875 70.597656 Z M 174.96875 58.804688 " fill-opacity="1" fill-rule="nonzero"/><path fill="#0f3971" d="M 173.132812 283.507812 L 216.988281 283.507812 L 216.988281 292.023438 L 173.132812 292.023438 Z M 173.132812 283.507812 " fill-opacity="1" fill-rule="nonzero"/><path fill="#a1d2d9" d="M 249.554688 112.015625 C 249.554688 116.269531 247.4375 119.714844 244.828125 119.714844 L 145.539062 119.714844 C 142.925781 119.714844 140.808594 116.269531 140.808594 112.015625 L 140.808594 95.964844 C 140.808594 91.714844 142.925781 88.265625 145.539062 88.265625 L 244.828125 88.265625 C 247.4375 88.265625 249.554688 91.714844 249.554688 95.964844 Z M 249.554688 112.015625 " fill-opacity="1" fill-rule="nonzero"/><path fill="#c3b9dc" d="M 249.554688 252.625 C 249.554688 258.09375 247.4375 262.527344 244.828125 262.527344 L 145.539062 262.527344 C 142.925781 262.527344 140.808594 258.09375 140.808594 252.625 L 140.808594 231.980469 C 140.808594 226.507812 142.925781 222.078125 145.539062 222.078125 L 244.828125 222.078125 C 247.4375 222.078125 249.554688 226.507812 249.554688 231.980469 Z M 249.554688 252.625 " fill-opacity="1" fill-rule="nonzero"/><path fill="#a1d2d9" d="M 140.808594 124.585938 L 245.558594 124.585938 L 245.558594 133.300781 L 140.808594 133.300781 Z M 140.808594 124.585938 " fill-opacity="1" fill-rule="nonzero"/><path fill="#a1d2d9" d="M 140.808594 139.9375 L 245.558594 139.9375 L 245.558594 148.65625 L 140.808594 148.65625 Z M 140.808594 139.9375 " fill-opacity="1" fill-rule="nonzero"/><path fill="#a1d2d9" d="M 140.808594 155.292969 L 189.207031 155.292969 L 189.207031 164.007812 L 140.808594 164.007812 Z M 140.808594 155.292969 " fill-opacity="1" fill-rule="nonzero"/><path fill="#45babd" d="M 249.554688 206.0625 C 249.554688 211.386719 247.128906 215.695312 244.136719 215.695312 L 212.746094 215.695312 C 209.753906 215.695312 207.324219 211.382812 207.324219 206.0625 L 207.324219 185.980469 C 207.324219 180.660156 209.753906 176.347656 212.746094 176.347656 L 244.136719 176.347656 C 247.128906 176.347656 249.554688 180.660156 249.554688 185.980469 Z M 249.554688 206.0625 " fill-opacity="1" fill-rule="nonzero"/><path fill="#45babd" d="M 140.808594 176.71875 L 199.960938 176.71875 L 199.960938 185.429688 L 140.808594 185.429688 Z M 140.808594 176.71875 " fill-opacity="1" fill-rule="nonzero"/><path fill="#45babd" d="M 140.808594 192.070312 L 199.960938 192.070312 L 199.960938 200.785156 L 140.808594 200.785156 Z M 140.808594 192.070312 " fill-opacity="1" fill-rule="nonzero"/><path fill="#45babd" d="M 140.808594 207.425781 L 168.136719 207.425781 L 168.136719 216.136719 L 140.808594 216.136719 Z M 140.808594 207.425781 " fill-opacity="1" fill-rule="nonzero"/></svg>