<svg width="24" height="24" viewBox="0 0 24 24" fill="none" xmlns="http://www.w3.org/2000/svg">
<g id="Icon">
<path id="Vector" d="M23.0091 4.43531C22.8734 4.22471 22.6871 4.05158 22.4671 3.93183C22.2471 3.81208 22.0005 3.74956 21.75 3.75H8.32594C8.03702 3.74998 7.75425 3.8334 7.5116 3.99023C7.26895 4.14706 7.07676 4.37063 6.95813 4.63406L0.883126 18.1341C0.780276 18.3624 0.736253 18.6129 0.755072 18.8627C0.773891 19.1125 0.854953 19.3535 0.990863 19.5639C1.12677 19.7743 1.3132 19.9473 1.53314 20.0672C1.75308 20.187 1.99953 20.2499 2.25 20.25H15.6741C15.963 20.25 16.2458 20.1666 16.4884 20.0098C16.731 19.8529 16.9232 19.6294 17.0419 19.3659L23.1169 5.86594C23.2198 5.63745 23.2639 5.38681 23.2451 5.1369C23.2263 4.88699 23.1451 4.64579 23.0091 4.43531ZM15.6741 18.75H2.25L8.32594 5.25H21.75L15.6741 18.75Z" fill="#F5F5F5"/>
</g>
</svg>
