<svg width="25" height="25" viewBox="0 0 25 25" fill="none" xmlns="http://www.w3.org/2000/svg">
  <g id="Icon">
    <path id="Vector"
      d="M23.5091 4.93531C23.3734 4.72471 23.1871 4.55158 22.9671 4.43183C22.7471 4.31208 22.5005 4.24956 22.25 4.25H8.82594C8.53702 4.24998 8.25425 4.3334 8.0116 4.49023C7.76895 4.64706 7.57676 4.87063 7.45813 5.13406L1.38313 18.6341C1.28028 18.8624 1.23625 19.1129 1.25507 19.3627C1.27389 19.6125 1.35495 19.8535 1.49086 20.0639C1.62677 20.2743 1.8132 20.4473 2.03314 20.5672C2.25308 20.687 2.49953 20.7499 2.75 20.75H16.1741C16.463 20.75 16.7458 20.6666 16.9884 20.5098C17.231 20.3529 17.4232 20.1294 17.5419 19.8659L23.6169 6.36594C23.7198 6.13745 23.7639 5.88681 23.7451 5.6369C23.7263 5.38699 23.6451 5.14579 23.5091 4.93531ZM16.1741 19.25H2.75L8.82594 5.75H22.25L16.1741 19.25Z"
      fill="#F9E8AB" />
  </g>
</svg>