<svg width="12" height="12" viewBox="0 0 12 12" fill="none" xmlns="http://www.w3.org/2000/svg">
<g id="Small Icon  --icon">
<path id="Vector" d="M10.1479 4.89797L6.39795 8.64797C6.34569 8.70041 6.28359 8.74202 6.21522 8.77041C6.14685 8.7988 6.07354 8.81341 5.99951 8.81341C5.92548 8.81341 5.85217 8.7988 5.7838 8.77041C5.71543 8.74202 5.65333 8.70041 5.60107 8.64797L1.85107 4.89797C1.7454 4.7923 1.68604 4.64897 1.68604 4.49953C1.68604 4.35009 1.7454 4.20677 1.85107 4.10109C1.95675 3.99542 2.10007 3.93606 2.24951 3.93606C2.39895 3.93606 2.54228 3.99542 2.64795 4.10109L5.99998 7.45312L9.35201 4.10063C9.45768 3.99495 9.60101 3.93559 9.75045 3.93559C9.89989 3.93559 10.0432 3.99495 10.1489 4.10063C10.2546 4.2063 10.3139 4.34962 10.3139 4.49906C10.3139 4.64851 10.2546 4.79183 10.1489 4.8975L10.1479 4.89797Z" fill="white"/>
</g>
</svg>
