<svg width="33" height="33" viewBox="0 0 33 33" fill="none" xmlns="http://www.w3.org/2000/svg">
<g id="Icon  --icon">
<path id="Vector" d="M21.3334 14.5C21.3334 14.7653 21.228 15.0196 21.0405 15.2071C20.8529 15.3947 20.5986 15.5 20.3334 15.5H12.3334C12.0682 15.5 11.8138 15.3947 11.6263 15.2071C11.4387 15.0196 11.3334 14.7653 11.3334 14.5C11.3334 14.2348 11.4387 13.9805 11.6263 13.7929C11.8138 13.6054 12.0682 13.5 12.3334 13.5H20.3334C20.5986 13.5 20.8529 13.6054 21.0405 13.7929C21.228 13.9805 21.3334 14.2348 21.3334 14.5ZM20.3334 17.5H12.3334C12.0682 17.5 11.8138 17.6054 11.6263 17.7929C11.4387 17.9805 11.3334 18.2348 11.3334 18.5C11.3334 18.7653 11.4387 19.0196 11.6263 19.2071C11.8138 19.3947 12.0682 19.5 12.3334 19.5H20.3334C20.5986 19.5 20.8529 19.3947 21.0405 19.2071C21.228 19.0196 21.3334 18.7653 21.3334 18.5C21.3334 18.2348 21.228 17.9805 21.0405 17.7929C20.8529 17.6054 20.5986 17.5 20.3334 17.5ZM29.3334 16.5C29.3339 18.7445 28.7533 20.9508 27.6481 22.9042C26.5429 24.8577 24.9508 26.4917 23.0268 27.6473C21.1027 28.8029 18.9122 29.4407 16.6685 29.4986C14.4249 29.5564 12.2044 29.0324 10.2234 27.9775L5.96712 29.3963C5.61473 29.5138 5.23657 29.5309 4.87503 29.4455C4.51349 29.3602 4.18286 29.1759 3.92019 28.9132C3.65752 28.6506 3.47319 28.3199 3.38787 27.9584C3.30255 27.5968 3.3196 27.2187 3.43712 26.8663L4.85587 22.61C3.92856 20.8666 3.41062 18.9348 3.34137 16.9613C3.27212 14.9877 3.65338 13.0244 4.45621 11.2202C5.25904 9.41604 6.46234 7.81847 7.97477 6.54878C9.4872 5.27909 11.269 4.37063 13.185 3.89238C15.1009 3.41413 17.1006 3.37865 19.0323 3.78862C20.964 4.1986 22.777 5.04327 24.3335 6.2585C25.89 7.47374 27.1492 9.02761 28.0156 10.8022C28.8819 12.5767 29.3326 14.5253 29.3334 16.5ZM27.3334 16.5C27.3329 14.8127 26.9442 13.1481 26.1975 11.635C25.4507 10.1219 24.3659 8.80083 23.0269 7.77408C21.6879 6.74733 20.1306 6.04238 18.4756 5.71377C16.8206 5.38517 15.1121 5.44171 13.4824 5.87904C11.8527 6.31636 10.3455 7.12274 9.07731 8.23578C7.80914 9.34882 6.81402 10.7387 6.16895 12.2979C5.52388 13.857 5.24615 15.5437 5.35724 17.2274C5.46834 18.9111 5.96528 20.5466 6.80962 22.0075C6.88049 22.1302 6.92449 22.2665 6.93871 22.4074C6.95294 22.5484 6.93706 22.6907 6.89212 22.825L5.33337 27.5L10.0084 25.9413C10.1102 25.9066 10.217 25.8888 10.3246 25.8888C10.5003 25.8891 10.6727 25.9357 10.8246 26.0238C12.4969 26.9913 14.3945 27.5013 16.3264 27.5026C18.2584 27.5038 20.1566 26.9961 21.8301 26.0307C23.5036 25.0653 24.8933 23.6762 25.8593 22.0031C26.8254 20.33 27.3338 18.432 27.3334 16.5Z" fill="#A855F7"/>
</g>
</svg>
