<svg width="25" height="25" viewBox="0 0 25 25" fill="none" xmlns="http://www.w3.org/2000/svg">
<g id="Icon">
<path id="Vector" d="M22.1478 16.625C22.2469 16.7969 22.2738 17.0011 22.2226 17.1927C22.1715 17.3844 22.0465 17.5481 21.875 17.6478L12.875 22.8978C12.7603 22.9647 12.6299 22.9999 12.4972 22.9999C12.3644 22.9999 12.2341 22.9647 12.1194 22.8978L3.11938 17.6478C2.95034 17.5462 2.82811 17.3822 2.77916 17.1911C2.7302 17.0001 2.75846 16.7975 2.85781 16.6271C2.95717 16.4568 3.11962 16.3324 3.31 16.2809C3.50037 16.2295 3.70336 16.2551 3.875 16.3522L12.5 21.3819L21.125 16.3522C21.2969 16.2531 21.5011 16.2262 21.6927 16.2774C21.8844 16.3285 22.0481 16.4535 22.1478 16.625ZM21.125 11.8522L12.5 16.8819L3.875 11.8522C3.70423 11.7672 3.50748 11.7504 3.32479 11.8053C3.1421 11.8603 2.9872 11.9827 2.89163 12.1478C2.79606 12.3129 2.76699 12.5082 2.81035 12.694C2.8537 12.8798 2.96622 13.0421 3.125 13.1478L12.125 18.3978C12.2397 18.4647 12.3701 18.4999 12.5028 18.4999C12.6356 18.4999 12.7659 18.4647 12.8806 18.3978L21.8806 13.1478C21.9671 13.0989 22.0429 13.0333 22.1038 12.9549C22.1647 12.8764 22.2094 12.7866 22.2353 12.6907C22.2612 12.5949 22.2679 12.4948 22.2548 12.3963C22.2417 12.2979 22.2092 12.203 22.1592 12.1172C22.1091 12.0314 22.0426 11.9564 21.9633 11.8966C21.884 11.8367 21.7937 11.7932 21.6975 11.7685C21.6013 11.7439 21.5011 11.7386 21.4028 11.7529C21.3046 11.7673 21.2101 11.801 21.125 11.8522ZM2.75 8C2.7503 7.86864 2.7851 7.73966 2.85091 7.62597C2.91672 7.51228 3.01124 7.41787 3.125 7.35219L12.125 2.10219C12.2397 2.03531 12.3701 2.00007 12.5028 2.00007C12.6356 2.00007 12.7659 2.03531 12.8806 2.10219L21.8806 7.35219C21.9938 7.41824 22.0878 7.51281 22.1531 7.62647C22.2183 7.74014 22.2527 7.86892 22.2527 8C22.2527 8.13108 22.2183 8.25986 22.1531 8.37353C22.0878 8.48719 21.9938 8.58176 21.8806 8.64781L12.8806 13.8978C12.7659 13.9647 12.6356 13.9999 12.5028 13.9999C12.3701 13.9999 12.2397 13.9647 12.125 13.8978L3.125 8.64781C3.01124 8.58213 2.91672 8.48772 2.85091 8.37403C2.7851 8.26034 2.7503 8.13136 2.75 8ZM4.98875 8L12.5 12.3819L20.0112 8L12.5 3.61812L4.98875 8Z" fill="#18181B"/>
</g>
</svg>
