<svg width="25" height="25" viewBox="0 0 25 25" fill="none" xmlns="http://www.w3.org/2000/svg">
<g id="Icon">
<path id="Vector" d="M11.75 4.25V2C11.75 1.80109 11.829 1.61032 11.9697 1.46967C12.1103 1.32902 12.3011 1.25 12.5 1.25C12.6989 1.25 12.8897 1.32902 13.0303 1.46967C13.171 1.61032 13.25 1.80109 13.25 2V4.25C13.25 4.44891 13.171 4.63968 13.0303 4.78033C12.8897 4.92098 12.6989 5 12.5 5C12.3011 5 12.1103 4.92098 11.9697 4.78033C11.829 4.63968 11.75 4.44891 11.75 4.25ZM18.5 12.5C18.5 13.6867 18.1481 14.8467 17.4888 15.8334C16.8295 16.8201 15.8925 17.5892 14.7961 18.0433C13.6997 18.4974 12.4933 18.6162 11.3295 18.3847C10.1656 18.1532 9.09647 17.5818 8.25736 16.7426C7.41824 15.9035 6.8468 14.8344 6.61529 13.6705C6.38378 12.5067 6.5026 11.3003 6.95672 10.2039C7.41085 9.10754 8.17988 8.17047 9.16658 7.51118C10.1533 6.85189 11.3133 6.5 12.5 6.5C14.0908 6.50174 15.6159 7.13444 16.7407 8.25928C17.8656 9.38412 18.4983 10.9092 18.5 12.5ZM17 12.5C17 11.61 16.7361 10.74 16.2416 9.99993C15.7471 9.25991 15.0443 8.68314 14.2221 8.34254C13.3998 8.00195 12.495 7.91283 11.6221 8.08647C10.7492 8.2601 9.94736 8.68868 9.31802 9.31802C8.68868 9.94736 8.2601 10.7492 8.08647 11.6221C7.91283 12.495 8.00195 13.3998 8.34254 14.2221C8.68314 15.0443 9.25991 15.7471 9.99993 16.2416C10.74 16.7361 11.61 17 12.5 17C13.6931 16.9988 14.837 16.5243 15.6806 15.6806C16.5243 14.837 16.9988 13.6931 17 12.5ZM5.96938 7.03063C6.11011 7.17136 6.30098 7.25042 6.5 7.25042C6.69902 7.25042 6.88989 7.17136 7.03063 7.03063C7.17136 6.88989 7.25042 6.69902 7.25042 6.5C7.25042 6.30098 7.17136 6.11011 7.03063 5.96938L5.53062 4.46938C5.38989 4.32864 5.19902 4.24958 5 4.24958C4.80098 4.24958 4.61011 4.32864 4.46938 4.46938C4.32864 4.61011 4.24958 4.80098 4.24958 5C4.24958 5.19902 4.32864 5.38989 4.46938 5.53062L5.96938 7.03063ZM5.96938 17.9694L4.46938 19.4694C4.32864 19.6101 4.24958 19.801 4.24958 20C4.24958 20.199 4.32864 20.3899 4.46938 20.5306C4.61011 20.6714 4.80098 20.7504 5 20.7504C5.19902 20.7504 5.38989 20.6714 5.53062 20.5306L7.03063 19.0306C7.10031 18.9609 7.15558 18.8782 7.1933 18.7872C7.23101 18.6961 7.25042 18.5985 7.25042 18.5C7.25042 18.4015 7.23101 18.3039 7.1933 18.2128C7.15558 18.1218 7.10031 18.0391 7.03063 17.9694C6.96094 17.8997 6.87822 17.8444 6.78717 17.8067C6.69613 17.769 6.59855 17.7496 6.5 17.7496C6.40145 17.7496 6.30387 17.769 6.21283 17.8067C6.12178 17.8444 6.03906 17.8997 5.96938 17.9694ZM18.5 7.25C18.5985 7.25008 18.6961 7.23074 18.7871 7.1931C18.8782 7.15546 18.9609 7.10025 19.0306 7.03063L20.5306 5.53062C20.6714 5.38989 20.7504 5.19902 20.7504 5C20.7504 4.80098 20.6714 4.61011 20.5306 4.46938C20.3899 4.32864 20.199 4.24958 20 4.24958C19.801 4.24958 19.6101 4.32864 19.4694 4.46938L17.9694 5.96938C17.8644 6.07427 17.7928 6.20796 17.7639 6.35352C17.7349 6.49908 17.7497 6.64998 17.8065 6.78709C17.8633 6.92421 17.9596 7.04139 18.083 7.12379C18.2065 7.20619 18.3516 7.25012 18.5 7.25ZM19.0306 17.9694C18.8899 17.8286 18.699 17.7496 18.5 17.7496C18.301 17.7496 18.1101 17.8286 17.9694 17.9694C17.8286 18.1101 17.7496 18.301 17.7496 18.5C17.7496 18.699 17.8286 18.8899 17.9694 19.0306L19.4694 20.5306C19.5391 20.6003 19.6218 20.6556 19.7128 20.6933C19.8039 20.731 19.9015 20.7504 20 20.7504C20.0985 20.7504 20.1961 20.731 20.2872 20.6933C20.3782 20.6556 20.4609 20.6003 20.5306 20.5306C20.6003 20.4609 20.6556 20.3782 20.6933 20.2872C20.731 20.1961 20.7504 20.0985 20.7504 20C20.7504 19.9015 20.731 19.8039 20.6933 19.7128C20.6556 19.6218 20.6003 19.5391 20.5306 19.4694L19.0306 17.9694ZM5 12.5C5 12.3011 4.92098 12.1103 4.78033 11.9697C4.63968 11.829 4.44891 11.75 4.25 11.75H2C1.80109 11.75 1.61032 11.829 1.46967 11.9697C1.32902 12.1103 1.25 12.3011 1.25 12.5C1.25 12.6989 1.32902 12.8897 1.46967 13.0303C1.61032 13.171 1.80109 13.25 2 13.25H4.25C4.44891 13.25 4.63968 13.171 4.78033 13.0303C4.92098 12.8897 5 12.6989 5 12.5ZM12.5 20C12.3011 20 12.1103 20.079 11.9697 20.2197C11.829 20.3603 11.75 20.5511 11.75 20.75V23C11.75 23.1989 11.829 23.3897 11.9697 23.5303C12.1103 23.671 12.3011 23.75 12.5 23.75C12.6989 23.75 12.8897 23.671 13.0303 23.5303C13.171 23.3897 13.25 23.1989 13.25 23V20.75C13.25 20.5511 13.171 20.3603 13.0303 20.2197C12.8897 20.079 12.6989 20 12.5 20ZM23 11.75H20.75C20.5511 11.75 20.3603 11.829 20.2197 11.9697C20.079 12.1103 20 12.3011 20 12.5C20 12.6989 20.079 12.8897 20.2197 13.0303C20.3603 13.171 20.5511 13.25 20.75 13.25H23C23.1989 13.25 23.3897 13.171 23.5303 13.0303C23.671 12.8897 23.75 12.6989 23.75 12.5C23.75 12.3011 23.671 12.1103 23.5303 11.9697C23.3897 11.829 23.1989 11.75 23 11.75Z" fill="#F5F5F5"/>
</g>
</svg>
