<svg width="25" height="25" viewBox="0 0 25 25" fill="none" xmlns="http://www.w3.org/2000/svg">
<g id="TwitterLogo">
<path id="Vector" d="M23.5307 7.78056L20.7275 10.5837C20.1613 17.1481 14.6254 22.2499 8.00005 22.2499C6.6388 22.2499 5.51661 22.0343 4.66442 21.6087C3.97723 21.2646 3.69598 20.8962 3.62567 20.7912C3.56298 20.6972 3.52234 20.5902 3.5068 20.4782C3.49125 20.3663 3.50121 20.2523 3.53592 20.1448C3.57062 20.0372 3.62919 19.9389 3.70723 19.8572C3.78527 19.7754 3.88078 19.7124 3.98661 19.6727C4.01098 19.6634 6.25911 18.7999 7.68692 17.1565C6.89509 16.5055 6.20387 15.741 5.63567 14.8877C4.47317 13.1618 3.17192 10.1637 3.57317 5.68337C3.58589 5.54101 3.63902 5.40525 3.72631 5.29207C3.81361 5.17889 3.93142 5.09301 4.06588 5.04454C4.20034 4.99608 4.34586 4.98704 4.48528 5.01851C4.62471 5.04997 4.75224 5.12061 4.85286 5.22212C4.88567 5.25494 7.97286 8.32525 11.7472 9.32087V8.74994C11.7458 8.15124 11.8642 7.55831 12.0954 7.00606C12.3266 6.45381 12.6659 5.95341 13.0935 5.53431C13.5087 5.11968 14.0028 4.79241 14.5465 4.57182C15.0903 4.35123 15.6727 4.24178 16.2594 4.24994C17.0465 4.2577 17.8182 4.46899 18.4995 4.86325C19.1807 5.25752 19.7484 5.82135 20.1472 6.49994H23C23.1485 6.49982 23.2936 6.54374 23.417 6.62615C23.5405 6.70855 23.6367 6.82573 23.6935 6.96284C23.7503 7.09996 23.7652 7.25085 23.7362 7.39642C23.7072 7.54198 23.6357 7.67567 23.5307 7.78056Z" fill="#F9E8AB"/>
</g>
</svg>
